<svg data-name="025_SCIENCE" viewBox="0 0 24 24" xmlns="http://www.w3.org/2000/svg"><path d="M10 12H7a1 1 0 0 1-1-1V3a1 1 0 0 1 1-1h3a1 1 0 0 1 0 2H8v6h2a1 1 0 0 1 0 2Z" fill="#008dda" class="fill-333333"></path><path d="M9 8H7a1 1 0 0 1 0-2h2a1 1 0 0 1 0 2ZM12 22a1 1 0 0 1-1-1v-4a1 1 0 0 0-1-1H5v5a1 1 0 0 1-2 0v-6a1 1 0 0 1 1-1h6a3 3 0 0 1 3 3v4a1 1 0 0 1-1 1Z" fill="#008dda" class="fill-333333"></path><path d="M8 22a1 1 0 0 1-1-1v-6a1 1 0 0 1 2 0v6a1 1 0 0 1-1 1ZM18 22h-1a3 3 0 0 1-3-3v-2a3 3 0 0 1 3-3h1a1 1 0 0 1 0 2h-1a1 1 0 0 0-1 1v2a1 1 0 0 0 1 1h1a1 1 0 0 1 0 2ZM21 16a1 1 0 0 1-1-1v-1a1 1 0 0 1 2 0v1a1 1 0 0 1-1 1ZM17 6h-4a1 1 0 0 1 0-2h4a1 1 0 0 1 0 2ZM17 10h-4a1 1 0 0 1 0-2h4a1 1 0 0 1 0 2Z" fill="#008dda" class="fill-333333"></path></svg>