<svg xmlns="http://www.w3.org/2000/svg" viewBox="0 0 512 512" xml:space="preserve" enable-background="new 0 0 512 512"><path d="M391 1H121C93.43 1 71 23.43 71 51v410c0 27.57 22.43 50 50 50h270c27.57 0 50-22.43 50-50V51c0-27.57-22.43-50-50-50zm30 460c0 16.542-13.458 30-30 30H121c-16.542 0-30-13.458-30-30V51c0-16.542 13.458-30 30-30h270c16.542 0 30 13.458 30 30v410z" fill="#3f3f3f" class="fill-283954"></path><path d="M166 191h-20c-13.785 0-25 11.215-25 25v20c0 13.785 11.215 25 25 25h20c13.785 0 25-11.215 25-25v-20c0-13.785-11.215-25-25-25zm5 45c0 2.757-2.243 5-5 5h-20c-2.757 0-5-2.243-5-5v-20c0-2.757 2.243-5 5-5h20c2.757 0 5 2.243 5 5v20zM266 191h-20c-13.785 0-25 11.215-25 25v20c0 13.785 11.215 25 25 25h20c13.785 0 25-11.215 25-25v-20c0-13.785-11.215-25-25-25zm5 45c0 2.757-2.243 5-5 5h-20c-2.757 0-5-2.243-5-5v-20c0-2.757 2.243-5 5-5h20c2.757 0 5 2.243 5 5v20zM366 191h-20c-13.785 0-25 11.215-25 25v20c0 13.785 11.215 25 25 25h20c13.785 0 25-11.215 25-25v-20c0-13.785-11.215-25-25-25zm5 45c0 2.757-2.243 5-5 5h-20c-2.757 0-5-2.243-5-5v-20c0-2.757 2.243-5 5-5h20c2.757 0 5 2.243 5 5v20zM166 291h-20c-13.785 0-25 11.215-25 25v20c0 13.785 11.215 25 25 25h20c13.785 0 25-11.215 25-25v-20c0-13.785-11.215-25-25-25zm5 45c0 2.757-2.243 5-5 5h-20c-2.757 0-5-2.243-5-5v-20c0-2.757 2.243-5 5-5h20c2.757 0 5 2.243 5 5v20zM266 291h-20c-13.785 0-25 11.215-25 25v20c0 13.785 11.215 25 25 25h20c13.785 0 25-11.215 25-25v-20c0-13.785-11.215-25-25-25zm5 45c0 2.757-2.243 5-5 5h-20c-2.757 0-5-2.243-5-5v-20c0-2.757 2.243-5 5-5h20c2.757 0 5 2.243 5 5v20zM166 391h-20c-13.785 0-25 11.215-25 25v20c0 13.785 11.215 25 25 25h20c13.785 0 25-11.215 25-25v-20c0-13.785-11.215-25-25-25zm5 45c0 2.757-2.243 5-5 5h-20c-2.757 0-5-2.243-5-5v-20c0-2.757 2.243-5 5-5h20c2.757 0 5 2.243 5 5v20zM266 391h-20c-13.785 0-25 11.215-25 25v20c0 13.785 11.215 25 25 25h20c13.785 0 25-11.215 25-25v-20c0-13.785-11.215-25-25-25zm5 45c0 2.757-2.243 5-5 5h-20c-2.757 0-5-2.243-5-5v-20c0-2.757 2.243-5 5-5h20c2.757 0 5 2.243 5 5v20z" fill="#3f3f3f" class="fill-283954"></path><path d="M361 51H151c-16.542 0-30 13.458-30 30v50c0 16.542 13.458 30 30 30h210c16.542 0 30-13.458 30-30V81c0-16.542-13.458-30-30-30zm10 80c0 5.514-4.486 10-10 10H151c-5.514 0-10-4.486-10-10V81c0-5.514 4.486-10 10-10h210c5.514 0 10 4.486 10 10v50zM366 291h-20c-13.785 0-25 11.215-25 25v120c0 13.785 11.215 25 25 25h20c13.785 0 25-11.215 25-25V316c0-13.785-11.215-25-25-25zm5 145c0 2.757-2.243 5-5 5h-20c-2.757 0-5-2.243-5-5V316c0-2.757 2.243-5 5-5h20c2.757 0 5 2.243 5 5v120z" fill="#008dda" class="fill-5596fb"></path></svg>