<svg width="256" height="256" viewBox="0 0 256 256" fill="none" xmlns="http://www.w3.org/2000/svg">
<path d="M18 24L209 22L213.5 205L110.5 238L53.5 247L45 218H40.5L17 213.5L18 24Z" fill="white"/>
<path d="M208.56 24.45H203.56V164.96H208.56V24.45Z" fill="white"/>
<path d="M212.56 67.75V167C212.546 167.525 212.34 168.027 211.98 168.41L162.15 218.24C161.961 218.428 161.736 218.576 161.489 218.675C161.241 218.775 160.977 218.824 160.71 218.82H51.9301L55.2001 237.35C55.5344 239.21 56.5099 240.893 57.9568 242.108C59.4038 243.323 61.2307 243.992 63.1201 244C63.5963 243.999 64.0715 243.955 64.5401 243.87L231.1 213.63C233.206 213.254 235.078 212.06 236.306 210.307C237.533 208.555 238.017 206.388 237.65 204.28L213.55 67.66L212.56 67.75Z" fill="white"/>
<path d="M162.74 211.97L205.74 168.97H162.74V211.97Z" fill="white"/>
<path d="M237.65 204.28L213.55 67.66L212.55 67.75V90.38L232.64 204.27C233.007 206.378 232.523 208.545 231.296 210.297C230.068 212.05 228.196 213.244 226.09 213.62L60.79 243.62C61.5452 243.851 62.3304 243.969 63.12 243.97C63.5963 243.969 64.0715 243.925 64.54 243.84L231.1 213.63C233.206 213.254 235.078 212.06 236.306 210.307C237.533 208.555 238.016 206.388 237.65 204.28Z" fill="white"/>
<path d="M200.74 168.97L162.74 206.97V211.97L205.74 168.97H200.74Z" fill="white"/>
<path d="M26.3 219.3H42.45L45.76 238.11C46.272 241.018 47.7912 243.652 50.0511 245.552C52.3111 247.452 55.1676 248.495 58.12 248.5C58.8608 248.501 59.6003 248.438 60.33 248.31L231.88 218.06C235.161 217.477 238.077 215.617 239.989 212.888C241.901 210.159 242.653 206.783 242.08 203.5L213.06 39V22.45C213.06 21.7869 212.797 21.151 212.328 20.6822C211.859 20.2134 211.223 19.95 210.56 19.95H65.94C65.3503 16.47 63.5476 13.3112 60.8513 11.0335C58.1551 8.75572 54.7395 7.5061 51.21 7.5061C47.6804 7.5061 44.2648 8.75572 41.5686 11.0335C38.8724 13.3112 37.0697 16.47 36.48 19.95H26.3C22.967 19.9526 19.7713 21.2778 17.4146 23.6346C15.0578 25.9913 13.7326 29.187 13.73 32.52V206.73C13.7326 210.063 15.0578 213.259 17.4146 215.615C19.7713 217.972 22.967 219.297 26.3 219.3ZM212.3 168.74C212.745 168.269 212.999 167.648 213.01 167V67.75L237.1 204.37C237.446 206.348 236.992 208.383 235.839 210.027C234.686 211.672 232.928 212.791 230.95 213.14L59.46 243.38C58.481 243.553 57.4775 243.531 56.507 243.316C55.5364 243.101 54.6177 242.696 53.8033 242.126C52.989 241.556 52.2949 240.831 51.7607 239.993C51.2265 239.154 50.8627 238.219 50.69 237.24L47.53 219.3H160.73C161.393 219.3 162.03 219.038 162.5 218.57L212.3 168.74ZM163.2 210.74V169.44H204.5L163.2 210.74ZM51.21 12.5C53.4162 12.5138 55.556 13.2568 57.296 14.6133C59.0359 15.9698 60.2785 17.8637 60.83 20H41.58C42.132 17.8621 43.376 15.967 45.118 14.6103C46.86 13.2536 49.002 12.5116 51.21 12.5ZM18.73 32.5C18.751 30.5053 19.5576 28.5992 20.9746 27.1953C22.3917 25.7913 24.3052 25.0025 26.3 25H36.3V47.37C36.1495 49.4265 36.4246 51.492 37.1083 53.4375C37.7919 55.3829 38.8693 57.1665 40.2732 58.6769C41.677 60.1873 43.3773 61.392 45.2676 62.2157C47.158 63.0395 49.1979 63.4647 51.26 63.4647C53.322 63.4647 55.362 63.0395 57.2523 62.2157C59.1427 61.392 60.8429 60.1873 62.2468 58.6769C63.6507 57.1665 64.7281 55.3829 65.4117 53.4375C66.0953 51.492 66.3705 49.4265 66.22 47.37V34.92C66.22 34.2569 65.9566 33.621 65.4878 33.1522C65.0189 32.6834 64.383 32.42 63.72 32.42C63.0569 32.42 62.4211 32.6834 61.9522 33.1522C61.4834 33.621 61.22 34.2569 61.22 34.92V47.37C61.3441 48.753 61.1787 50.1466 60.7346 51.4622C60.2904 52.7778 59.5772 53.9865 58.6402 55.0113C57.7032 56.036 56.5631 56.8545 55.2925 57.4144C54.0219 57.9743 52.6485 58.2635 51.26 58.2635C49.8714 58.2635 48.4981 57.9743 47.2275 57.4144C45.9568 56.8545 44.8167 56.036 43.8798 55.0113C42.9428 53.9865 42.2295 52.7778 41.7854 51.4622C41.3412 50.1466 41.1759 48.753 41.3 47.37V25H208.06V164.47H160.74C160.077 164.47 159.441 164.733 158.972 165.202C158.503 165.671 158.24 166.307 158.24 166.97V214.3H26.3C24.2931 214.297 22.3692 213.499 20.9501 212.08C19.531 210.661 18.7326 208.737 18.73 206.73V32.5Z" fill="#263238"/>
<path d="M59 82.33H187.76C188.423 82.33 189.059 82.0666 189.528 81.5977C189.997 81.1289 190.26 80.493 190.26 79.83C190.26 79.1669 189.997 78.531 189.528 78.0622C189.059 77.5933 188.423 77.33 187.76 77.33H59C58.337 77.33 57.7011 77.5933 57.2322 78.0622C56.7634 78.531 56.5 79.1669 56.5 79.83C56.5 80.493 56.7634 81.1289 57.2322 81.5977C57.7011 82.0666 58.337 82.33 59 82.33Z" fill="#263238"/>
<path d="M39 102.33H187.76C188.423 102.33 189.059 102.067 189.528 101.598C189.997 101.129 190.26 100.493 190.26 99.83C190.26 99.1669 189.997 98.531 189.528 98.0622C189.059 97.5933 188.423 97.33 187.76 97.33H39C38.337 97.33 37.7011 97.5933 37.2322 98.0622C36.7634 98.531 36.5 99.1669 36.5 99.83C36.5 100.493 36.7634 101.129 37.2322 101.598C37.7011 102.067 38.337 102.33 39 102.33Z" fill="#263238"/>
<path d="M39 122.33H187.76C188.423 122.33 189.059 122.067 189.528 121.598C189.997 121.129 190.26 120.493 190.26 119.83C190.26 119.167 189.997 118.531 189.528 118.062C189.059 117.593 188.423 117.33 187.76 117.33H39C38.337 117.33 37.7011 117.593 37.2322 118.062C36.7634 118.531 36.5 119.167 36.5 119.83C36.5 120.493 36.7634 121.129 37.2322 121.598C37.7011 122.067 38.337 122.33 39 122.33Z" fill="#263238"/>
<path d="M39 142.33H187.76C188.423 142.33 189.059 142.067 189.528 141.598C189.997 141.129 190.26 140.493 190.26 139.83C190.26 139.167 189.997 138.531 189.528 138.062C189.059 137.593 188.423 137.33 187.76 137.33H39C38.337 137.33 37.7011 137.593 37.2322 138.062C36.7634 138.531 36.5 139.167 36.5 139.83C36.5 140.493 36.7634 141.129 37.2322 141.598C37.7011 142.067 38.337 142.33 39 142.33Z" fill="#263238"/>
<path d="M39 162.33H140.7C141.363 162.33 141.999 162.067 142.468 161.598C142.937 161.129 143.2 160.493 143.2 159.83C143.2 159.167 142.937 158.531 142.468 158.062C141.999 157.593 141.363 157.33 140.7 157.33H39C38.337 157.33 37.7011 157.593 37.2322 158.062C36.7634 158.531 36.5 159.167 36.5 159.83C36.5 160.493 36.7634 161.129 37.2322 161.598C37.7011 162.067 38.337 162.33 39 162.33Z" fill="#263238"/>
<path d="M39 182.33H140.7C141.363 182.33 141.999 182.067 142.468 181.598C142.937 181.129 143.2 180.493 143.2 179.83C143.2 179.167 142.937 178.531 142.468 178.062C141.999 177.593 141.363 177.33 140.7 177.33H39C38.337 177.33 37.7011 177.593 37.2322 178.062C36.7634 178.531 36.5 179.167 36.5 179.83C36.5 180.493 36.7634 181.129 37.2322 181.598C37.7011 182.067 38.337 182.33 39 182.33Z" fill="#263238"/>
<path d="M39 202.33H140.7C141.363 202.33 141.999 202.067 142.468 201.598C142.937 201.129 143.2 200.493 143.2 199.83C143.2 199.167 142.937 198.531 142.468 198.062C141.999 197.593 141.363 197.33 140.7 197.33H39C38.337 197.33 37.7011 197.593 37.2322 198.062C36.7634 198.531 36.5 199.167 36.5 199.83C36.5 200.493 36.7634 201.129 37.2322 201.598C37.7011 202.067 38.337 202.33 39 202.33Z" fill="#263238"/>
<path d="M29.23 231H25.23V227C25.23 226.735 25.1246 226.48 24.9371 226.293C24.7496 226.105 24.4952 226 24.23 226C23.9648 226 23.7104 226.105 23.5229 226.293C23.3353 226.48 23.23 226.735 23.23 227V231H19.23C18.9648 231 18.7104 231.105 18.5229 231.293C18.3353 231.48 18.23 231.735 18.23 232C18.23 232.265 18.3353 232.52 18.5229 232.707C18.7104 232.895 18.9648 233 19.23 233H23.23V237C23.23 237.265 23.3353 237.52 23.5229 237.707C23.7104 237.895 23.9648 238 24.23 238C24.4952 238 24.7496 237.895 24.9371 237.707C25.1246 237.52 25.23 237.265 25.23 237V233H29.23C29.4952 233 29.7496 232.895 29.9371 232.707C30.1246 232.52 30.23 232.265 30.23 232C30.23 231.735 30.1246 231.48 29.9371 231.293C29.7496 231.105 29.4952 231 29.23 231Z" fill="white"/>
<path d="M241 101.33H237V97.33C237 97.0647 236.895 96.8104 236.707 96.6228C236.52 96.4353 236.265 96.33 236 96.33C235.735 96.33 235.48 96.4353 235.293 96.6228C235.105 96.8104 235 97.0647 235 97.33V101.33H231C230.735 101.33 230.48 101.435 230.293 101.623C230.105 101.81 230 102.065 230 102.33C230 102.595 230.105 102.85 230.293 103.037C230.48 103.225 230.735 103.33 231 103.33H235V107.33C235 107.595 235.105 107.85 235.293 108.037C235.48 108.225 235.735 108.33 236 108.33C236.265 108.33 236.52 108.225 236.707 108.037C236.895 107.85 237 107.595 237 107.33V103.33H241C241.265 103.33 241.52 103.225 241.707 103.037C241.895 102.85 242 102.595 242 102.33C242 102.065 241.895 101.81 241.707 101.623C241.52 101.435 241.265 101.33 241 101.33Z" fill="white"/>
<path d="M232.63 240.09C231.443 240.09 230.283 239.738 229.297 239.079C228.31 238.419 227.541 237.482 227.087 236.386C226.633 235.29 226.514 234.083 226.745 232.919C226.977 231.756 227.548 230.686 228.387 229.847C229.226 229.008 230.296 228.437 231.459 228.205C232.623 227.974 233.83 228.093 234.926 228.547C236.022 229.001 236.96 229.77 237.619 230.757C238.278 231.743 238.63 232.903 238.63 234.09C238.63 235.681 237.998 237.207 236.873 238.333C235.747 239.458 234.221 240.09 232.63 240.09ZM232.63 230.09C231.839 230.09 231.066 230.325 230.408 230.764C229.75 231.204 229.237 231.828 228.934 232.559C228.632 233.29 228.553 234.094 228.707 234.87C228.861 235.646 229.242 236.359 229.802 236.918C230.361 237.478 231.074 237.859 231.85 238.013C232.626 238.167 233.43 238.088 234.161 237.785C234.892 237.483 235.516 236.97 235.956 236.312C236.395 235.654 236.63 234.881 236.63 234.09C236.63 233.029 236.209 232.012 235.458 231.262C234.708 230.511 233.691 230.09 232.63 230.09Z" fill="white"/>
<path d="M231.63 33.26C230.443 33.26 229.283 32.9081 228.297 32.2488C227.31 31.5895 226.541 30.6525 226.087 29.5561C225.633 28.4598 225.514 27.2534 225.745 26.0895C225.977 24.9256 226.548 23.8565 227.387 23.0174C228.226 22.1783 229.296 21.6068 230.459 21.3753C231.623 21.1438 232.83 21.2626 233.926 21.7167C235.022 22.1709 235.96 22.9399 236.619 23.9266C237.278 24.9133 237.63 26.0733 237.63 27.26C237.63 28.8513 236.998 30.3774 235.873 31.5027C234.747 32.6279 233.221 33.26 231.63 33.26ZM231.63 23.26C230.839 23.26 230.066 23.4946 229.408 23.9341C228.75 24.3737 228.237 24.9984 227.934 25.7293C227.632 26.4602 227.553 27.2645 227.707 28.0404C227.861 28.8163 228.242 29.529 228.802 30.0884C229.361 30.6478 230.074 31.0288 230.85 31.1832C231.626 31.3375 232.43 31.2583 233.161 30.9555C233.892 30.6528 234.516 30.1401 234.956 29.4823C235.395 28.8245 235.63 28.0511 235.63 27.26C235.63 26.1991 235.209 25.1817 234.458 24.4316C233.708 23.6814 232.691 23.26 231.63 23.26Z" fill="white"/>
</svg>
